<svg width="152" height="165" viewBox="0 0 152 165" fill="none" xmlns="http://www.w3.org/2000/svg">
<g filter="url(#filter0_d_6_37)">
<path d="M29.9218 78.1441L10.984 78.1441C9.13086 78.1417 7.35451 77.3982 6.04504 76.0771C4.73557 74.756 4.00006 72.9652 4.00006 71.0981L4.00006 18.276C4.00617 13.4308 5.91917 8.78579 9.31952 5.35971C12.7199 1.93363 17.33 0.00615724 22.1388 -1.30089e-07L89.3726 -6.12284e-07C94.1814 0.00615669 98.7916 1.93363 102.192 5.35971C105.592 8.78579 107.505 13.4308 107.511 18.276L107.511 45.6085C107.511 46.7194 107.949 47.7847 108.729 48.5702C109.509 49.3558 110.566 49.797 111.668 49.797C112.771 49.797 113.828 49.3558 114.608 48.5702C115.388 47.7847 115.826 46.7194 115.826 45.6085L115.826 43.8772C115.826 42.0085 116.562 40.2163 117.874 38.8949C119.185 37.5735 120.964 36.8312 122.819 36.8312C124.673 36.8312 126.452 37.5735 127.764 38.8949C129.075 40.2163 129.812 42.0085 129.812 43.8772L129.812 45.6085C129.812 50.4556 127.901 55.1042 124.499 58.5316C121.097 61.959 116.484 63.8845 111.673 63.8845C106.862 63.8845 102.249 61.959 98.8471 58.5316C95.4454 55.1042 93.5343 50.4556 93.5343 45.6085L93.5343 18.276C93.5343 17.1651 93.0964 16.0997 92.3168 15.3142C91.5372 14.5287 90.4798 14.0874 89.3773 14.0874L22.1388 14.0874C21.0363 14.0874 19.9789 14.5287 19.1993 15.3142C18.4197 16.0997 17.9817 17.1651 17.9817 18.276L17.9817 64.052L29.9218 64.052C31.7765 64.052 33.5552 64.7944 34.8667 66.1158C36.1781 67.4372 36.9149 69.2293 36.9149 71.0981C36.9149 72.9668 36.1781 74.759 34.8667 76.0804C33.5552 77.4018 31.7765 78.1441 29.9218 78.1441Z" fill="#F5F5F5"/>
<path d="M140.26 36.8312C138.405 36.8312 136.627 37.5735 135.315 38.8949C134.004 40.2163 133.267 42.0085 133.267 43.8772L133.267 137.887C133.267 138.997 132.829 140.063 132.049 140.848C131.27 141.634 130.212 142.075 129.11 142.075L126.084 142.075L126.084 112.16C126.084 107.307 124.171 102.653 120.766 99.2218C117.361 95.7902 112.743 93.8617 107.927 93.8604L99.4466 93.8604C94.6335 93.8654 90.0192 95.7956 86.6179 99.227C83.2166 102.658 81.3067 107.31 81.3079 112.16L81.3079 142.084L22.1388 142.084C21.0363 142.084 19.9789 141.643 19.1993 140.858C18.4197 140.072 17.9817 139.007 17.9817 137.896L17.9817 98.6633L41.7695 98.6633C43.6241 98.6633 45.4029 97.9209 46.7143 96.5995C48.0258 95.2782 48.7626 93.486 48.7626 91.6172C48.7626 89.7485 48.0258 87.9563 46.7143 86.6349C45.4029 85.3135 43.6241 84.5712 41.7695 84.5712L10.9932 84.5712C9.1401 84.5712 7.36277 85.3123 6.05157 86.6316C4.74036 87.951 4.00251 89.7408 4.00006 91.6079C3.99909 91.8364 4.00988 92.0647 4.03239 92.2921C4.00999 92.5178 3.9992 92.7446 4.00006 92.9715L4.00006 137.882C4.00617 142.727 5.91917 147.372 9.31952 150.798C12.7199 154.224 17.33 156.152 22.1388 156.158L129.096 156.158C133.905 156.153 138.516 154.226 141.916 150.8C145.317 147.373 147.23 142.728 147.235 137.882L147.235 43.8726C147.233 42.0079 146.499 40.2197 145.191 38.8998C143.884 37.58 142.111 36.8361 140.26 36.8312ZM112.084 142.061L95.2942 142.061L95.2942 112.16C95.2942 111.049 95.7322 109.983 96.5118 109.198C97.2914 108.412 98.3487 107.971 99.4513 107.971L107.927 107.971C109.03 107.971 110.087 108.412 110.867 109.198C111.646 109.983 112.084 111.049 112.084 112.16L112.084 142.061Z" fill="#F5F5F5"/>
<path d="M68.832 21.7013L62.7304 21.7013C61.0533 21.7013 59.4449 22.3725 58.2591 23.5674C57.0732 24.7622 56.407 26.3828 56.407 28.0725L56.407 34.2204C56.4082 35.9093 57.075 37.5287 58.2607 38.7225C59.4464 39.9163 61.0541 40.5869 62.7304 40.5869L68.832 40.5869C70.5043 40.5808 72.106 39.9075 73.2868 38.7143C74.4675 37.5211 75.1311 35.9053 75.1323 34.2204L75.1323 28.0725C75.1323 26.3868 74.4693 24.7698 73.2884 23.5756C72.1075 22.3814 70.5051 21.7075 68.832 21.7013Z" fill="#F5F5F5"/>
<path d="M135.909 -1.32772e-07L128.722 -8.1227e-08C122.467 -3.63666e-08 117.396 5.10907 117.396 11.4114L117.396 18.6576C117.396 24.96 122.467 30.069 128.722 30.069L135.909 30.069C142.164 30.069 147.235 24.96 147.235 18.6576L147.235 11.4114C147.235 5.10907 142.164 -1.77633e-07 135.909 -1.32772e-07Z" fill="#CD4236"/>
<path d="M45.3307 21.7013L39.2337 21.7013C37.5566 21.7013 35.9482 22.3725 34.7624 23.5674C33.5765 24.7622 32.9103 26.3828 32.9103 28.0725L32.9103 34.2204C32.9115 35.9093 33.5783 37.5287 34.764 38.7225C35.9497 39.9163 37.5574 40.5869 39.2337 40.5869L45.3307 40.5869C47.007 40.5869 48.6147 39.9163 49.8004 38.7225C50.9861 37.5287 51.6529 35.9093 51.6541 34.2204L51.6541 28.0725C51.6541 26.3828 50.9879 24.7622 49.802 23.5674C48.6162 22.3725 47.0078 21.7013 45.3307 21.7013Z" fill="#F5F5F5"/>
<path d="M67.802 71.7451L61.705 71.7451C58.2127 71.7451 55.3816 74.5976 55.3816 78.1164L55.3816 84.2596C55.3816 87.7783 58.2127 90.6308 61.705 90.6308L67.802 90.6308C71.2943 90.6308 74.1254 87.7783 74.1254 84.2596L74.1254 78.1164C74.1254 74.5976 71.2943 71.7451 67.802 71.7451Z" fill="#F5F5F5"/>
<path d="M67.8066 95.0863L61.705 95.0863C60.0279 95.0863 58.4195 95.7576 57.2337 96.9524C56.0478 98.1473 55.3816 99.7678 55.3816 101.458L55.3816 107.605C55.3816 108.442 55.5452 109.27 55.863 110.043C56.1809 110.816 56.6467 111.518 57.2339 112.109C57.8212 112.7 58.5183 113.169 59.2855 113.489C60.0526 113.808 60.8748 113.973 61.705 113.972L67.8066 113.972C68.6366 113.973 69.4585 113.808 70.2255 113.489C70.9924 113.169 71.6892 112.7 72.276 112.109C72.8629 111.517 73.3283 110.815 73.6457 110.043C73.963 109.27 74.126 108.442 74.1254 107.605L74.1254 101.448C74.1242 99.7605 73.4579 98.1424 72.2731 96.9494C71.0882 95.7565 69.4817 95.0863 67.8066 95.0863Z" fill="#F5F5F5"/>
</g>
<defs>
<filter id="filter0_d_6_37" x="0" y="0" width="151.235" height="164.158" filterUnits="userSpaceOnUse" color-interpolation-filters="sRGB">
<feFlood flood-opacity="0" result="BackgroundImageFix"/>
<feColorMatrix in="SourceAlpha" type="matrix" values="0 0 0 0 0 0 0 0 0 0 0 0 0 0 0 0 0 0 127 0" result="hardAlpha"/>
<feOffset dy="4"/>
<feGaussianBlur stdDeviation="2"/>
<feComposite in2="hardAlpha" operator="out"/>
<feColorMatrix type="matrix" values="0 0 0 0 0 0 0 0 0 0 0 0 0 0 0 0 0 0 0.25 0"/>
<feBlend mode="normal" in2="BackgroundImageFix" result="effect1_dropShadow_6_37"/>
<feBlend mode="normal" in="SourceGraphic" in2="effect1_dropShadow_6_37" result="shape"/>
</filter>
</defs>
</svg>
